<?xml version="1.0" encoding="UTF-8" standalone="no"?>
<!DOCTYPE svg PUBLIC "-//W3C//DTD SVG 1.1//EN"
 "http://www.w3.org/Graphics/SVG/1.1/DTD/svg11.dtd">
<!-- Generated by graphviz version 2.40.1 (20161225.0304)
 -->
<!-- Title: UmlClassDiagram Pages: 1 -->
<svg width="2187pt" height="1688pt"
 viewBox="0.00 0.00 2187.49 1688.20" xmlns="http://www.w3.org/2000/svg" xmlns:xlink="http://www.w3.org/1999/xlink">
<g id="graph0" class="graph" transform="scale(1 1) rotate(0) translate(4 1684.2)">
<title>UmlClassDiagram</title>
<polygon fill="#ffffff" stroke="transparent" points="-4,4 -4,-1684.2 2183.4893,-1684.2 2183.4893,4 -4,4"/>
<!-- 0 -->
<g id="node1" class="node">
<title>0</title>
<polygon fill="#f2f2f2" stroke="#000000" points="1194.0936,-.5 1194.0936,-343.7 1743.1128,-343.7 1743.1128,-.5 1194.0936,-.5"/>
<text text-anchor="middle" x="1468.6032" y="-327.1" font-family="Times,serif" font-size="14.00" fill="#000000">Assembly</text>
<polyline fill="none" stroke="#000000" points="1194.0936,-318.9 1743.1128,-318.9 "/>
<text text-anchor="start" x="1202.0936" y="-302.3" font-family="Times,serif" font-size="14.00" fill="#000000">Private:</text>
<text text-anchor="start" x="1202.0936" y="-285.5" font-family="Times,serif" font-size="14.00" fill="#000000"> &#160;&#160;data: LibAssembly.Data</text>
<polyline fill="none" stroke="#000000" points="1194.0936,-277.3 1743.1128,-277.3 "/>
<text text-anchor="start" x="1202.0936" y="-260.7" font-family="Times,serif" font-size="14.00" fill="#000000">Public:</text>
<text text-anchor="start" x="1202.0936" y="-243.9" font-family="Times,serif" font-size="14.00" fill="#000000"> &#160;&#160;&#160;&lt;&lt;event&gt;&gt; votingCreated(address)</text>
<text text-anchor="start" x="1202.0936" y="-227.1" font-family="Times,serif" font-size="14.00" fill="#000000"> &#160;&#160;&#160;constructor(_identifier: string, _signatory: address)</text>
<text text-anchor="start" x="1202.0936" y="-210.3" font-family="Times,serif" font-size="14.00" fill="#000000"> &#160;&#160;&#160;identifier(): string</text>
<text text-anchor="start" x="1202.0936" y="-193.5" font-family="Times,serif" font-size="14.00" fill="#000000"> &#160;&#160;&#160;registrations(s: string): address</text>
<text text-anchor="start" x="1202.0936" y="-176.7" font-family="Times,serif" font-size="14.00" fill="#000000"> &#160;&#160;&#160;shareholders(a: address): string</text>
<text text-anchor="start" x="1202.0936" y="-159.9" font-family="Times,serif" font-size="14.00" fill="#000000"> &#160;&#160;&#160;secrets(i: uint256): string</text>
<text text-anchor="start" x="1202.0936" y="-143.1" font-family="Times,serif" font-size="14.00" fill="#000000"> &#160;&#160;&#160;votings(i: uint256): address</text>
<text text-anchor="start" x="1202.0936" y="-126.3" font-family="Times,serif" font-size="14.00" fill="#000000"> &#160;&#160;&#160;numSecrets(): uint256</text>
<text text-anchor="start" x="1202.0936" y="-109.5" font-family="Times,serif" font-size="14.00" fill="#000000"> &#160;&#160;&#160;numVotings(): uint256</text>
<text text-anchor="start" x="1202.0936" y="-92.7" font-family="Times,serif" font-size="14.00" fill="#000000"> &#160;&#160;&#160;shares(): address</text>
<text text-anchor="start" x="1202.0936" y="-75.9" font-family="Times,serif" font-size="14.00" fill="#000000"> &#160;&#160;&#160;register(secret: string, v: uint8, r: bytes32, s: bytes32)</text>
<text text-anchor="start" x="1202.0936" y="-59.1" font-family="Times,serif" font-size="14.00" fill="#000000"> &#160;&#160;&#160;setShareholder(_shareholder: address, _shares: uint256, v: uint8, r: bytes32, s: bytes32)</text>
<text text-anchor="start" x="1202.0936" y="-42.3" font-family="Times,serif" font-size="14.00" fill="#000000"> &#160;&#160;&#160;setShareholders(_shareholders: address[], _shares: uint256[], v: uint8, r: bytes32, s: bytes32)</text>
<text text-anchor="start" x="1202.0936" y="-25.5" font-family="Times,serif" font-size="14.00" fill="#000000"> &#160;&#160;&#160;newVoting(title: string, proposal: string, v: uint8, r: bytes32, s: bytes32)</text>
<text text-anchor="start" x="1202.0936" y="-8.7" font-family="Times,serif" font-size="14.00" fill="#000000"> &#160;&#160;&#160;lock(v: uint8, r: bytes32, s: bytes32)</text>
</g>
<!-- 1 -->
<g id="node2" class="node">
<title>1</title>
<polygon fill="#f2f2f2" stroke="#000000" points="769.4032,-380.7 769.4032,-572.7 1339.8032,-572.7 1339.8032,-380.7 769.4032,-380.7"/>
<text text-anchor="middle" x="1054.6032" y="-556.1" font-family="Times,serif" font-size="14.00" fill="#000000">&lt;&lt;Library&gt;&gt;</text>
<text text-anchor="middle" x="1054.6032" y="-539.3" font-family="Times,serif" font-size="14.00" fill="#000000">LibAssembly</text>
<polyline fill="none" stroke="#000000" points="769.4032,-531.1 1339.8032,-531.1 "/>
<text text-anchor="middle" x="1054.6032" y="-514.5" font-family="Times,serif" font-size="14.00" fill="#000000"> </text>
<polyline fill="none" stroke="#000000" points="769.4032,-506.3 1339.8032,-506.3 "/>
<text text-anchor="start" x="777.4032" y="-489.7" font-family="Times,serif" font-size="14.00" fill="#000000">Public:</text>
<text text-anchor="start" x="777.4032" y="-472.9" font-family="Times,serif" font-size="14.00" fill="#000000"> &#160;&#160;&#160;construct(data: Data, _identifier: string)</text>
<text text-anchor="start" x="777.4032" y="-456.1" font-family="Times,serif" font-size="14.00" fill="#000000"> &#160;&#160;&#160;register(data: Data, secret: string, a: address, v: uint8, r: bytes32, s: bytes32)</text>
<text text-anchor="start" x="777.4032" y="-439.3" font-family="Times,serif" font-size="14.00" fill="#000000"> &#160;&#160;&#160;setShareholder(data: Data, shareholder: address, shares: uint256)</text>
<text text-anchor="start" x="777.4032" y="-422.5" font-family="Times,serif" font-size="14.00" fill="#000000"> &#160;&#160;&#160;setShareholders(data: Data, shareholders: address[], shares: uint256[])</text>
<text text-anchor="start" x="777.4032" y="-405.7" font-family="Times,serif" font-size="14.00" fill="#000000"> &#160;&#160;&#160;newVoting(data: Data, title: string, proposal: string, signatory: address, owner: address): address</text>
<text text-anchor="start" x="777.4032" y="-388.9" font-family="Times,serif" font-size="14.00" fill="#000000"> &#160;&#160;&#160;lock(data: Data)</text>
</g>
<!-- 0&#45;&gt;1 -->
<g id="edge6" class="edge">
<title>0&#45;&gt;1</title>
<path fill="none" stroke="#000000" d="M1235.2863,-343.7626C1221.1433,-354.1683 1207.1668,-364.4515 1193.6269,-374.4135"/>
<polygon fill="#000000" stroke="#000000" points="1191.2357,-371.8275 1185.2551,-380.573 1195.3841,-377.4658 1191.2357,-371.8275"/>
</g>
<!-- 10 -->
<g id="node14" class="node">
<title>10</title>
<polygon fill="#f2f2f2" stroke="#000000" points="1298.0408,-1141.1 1298.0408,-1349.9 1583.1656,-1349.9 1583.1656,-1141.1 1298.0408,-1141.1"/>
<text text-anchor="middle" x="1440.6032" y="-1333.3" font-family="Times,serif" font-size="14.00" fill="#000000">owned</text>
<polyline fill="none" stroke="#000000" points="1298.0408,-1325.1 1583.1656,-1325.1 "/>
<text text-anchor="start" x="1306.0408" y="-1308.5" font-family="Times,serif" font-size="14.00" fill="#000000">Internal:</text>
<text text-anchor="start" x="1306.0408" y="-1291.7" font-family="Times,serif" font-size="14.00" fill="#000000"> &#160;&#160;owner: address</text>
<polyline fill="none" stroke="#000000" points="1298.0408,-1283.5 1583.1656,-1283.5 "/>
<text text-anchor="start" x="1306.0408" y="-1266.9" font-family="Times,serif" font-size="14.00" fill="#000000">Public:</text>
<text text-anchor="start" x="1306.0408" y="-1250.1" font-family="Times,serif" font-size="14.00" fill="#000000"> &#160;&#160;&#160;&lt;&lt;event&gt;&gt; feePaid(to: address, amount: uint)</text>
<text text-anchor="start" x="1306.0408" y="-1233.3" font-family="Times,serif" font-size="14.00" fill="#000000"> &#160;&#160;&#160;&lt;&lt;modifier&gt;&gt; restrict()</text>
<text text-anchor="start" x="1306.0408" y="-1216.5" font-family="Times,serif" font-size="14.00" fill="#000000"> &#160;&#160;&#160;&lt;&lt;modifier&gt;&gt; fee(amount: uint)</text>
<text text-anchor="start" x="1306.0408" y="-1199.7" font-family="Times,serif" font-size="14.00" fill="#000000"> &#160;&#160;&#160;constructor()</text>
<text text-anchor="start" x="1306.0408" y="-1182.9" font-family="Times,serif" font-size="14.00" fill="#000000"> &#160;&#160;&#160;getOwner(): (payable: address)</text>
<text text-anchor="start" x="1306.0408" y="-1166.1" font-family="Times,serif" font-size="14.00" fill="#000000"> &#160;&#160;&#160;changeOwner(newOwner: address)</text>
<text text-anchor="start" x="1306.0408" y="-1149.3" font-family="Times,serif" font-size="14.00" fill="#000000"> &#160;&#160;&#160;withdraw()</text>
</g>
<!-- 0&#45;&gt;10 -->
<g id="edge4" class="edge">
<title>0&#45;&gt;10</title>
<path fill="none" stroke="#000000" d="M1585.5649,-343.8135C1703.2663,-540.0244 1848.3748,-864.9005 1704.6032,-1104.6 1682.6712,-1141.1656 1647.6675,-1168.7676 1610.2279,-1189.395"/>
<polygon fill="none" stroke="#000000" points="1605.4583,-1180.0406 1583.3719,-1202.8975 1614.8915,-1198.8027 1605.4583,-1180.0406"/>
</g>
<!-- 11 -->
<g id="node15" class="node">
<title>11</title>
<polygon fill="#f2f2f2" stroke="#000000" points="0,-1157.9 0,-1333.1 431.2064,-1333.1 431.2064,-1157.9 0,-1157.9"/>
<text text-anchor="middle" x="215.6032" y="-1316.5" font-family="Times,serif" font-size="14.00" fill="#000000">signed</text>
<polyline fill="none" stroke="#000000" points="0,-1308.3 431.2064,-1308.3 "/>
<text text-anchor="start" x="8" y="-1291.7" font-family="Times,serif" font-size="14.00" fill="#000000">Public:</text>
<text text-anchor="start" x="8" y="-1274.9" font-family="Times,serif" font-size="14.00" fill="#000000"> &#160;&#160;signatory: address</text>
<polyline fill="none" stroke="#000000" points="0,-1266.7 431.2064,-1266.7 "/>
<text text-anchor="start" x="8" y="-1250.1" font-family="Times,serif" font-size="14.00" fill="#000000">Internal:</text>
<text text-anchor="start" x="8" y="-1233.3" font-family="Times,serif" font-size="14.00" fill="#000000"> &#160;&#160;&#160;verify(secret: bytes, v: uint8, r: bytes32, s: bytes32): (sender: address)</text>
<text text-anchor="start" x="8" y="-1216.5" font-family="Times,serif" font-size="14.00" fill="#000000"> &#160;&#160;&#160;verified(secret: bytes, v: uint8, r: bytes32, s: bytes32): (sender: address)</text>
<text text-anchor="start" x="8" y="-1199.7" font-family="Times,serif" font-size="14.00" fill="#000000">Public:</text>
<text text-anchor="start" x="8" y="-1182.9" font-family="Times,serif" font-size="14.00" fill="#000000"> &#160;&#160;&#160;&lt;&lt;modifier&gt;&gt; issigned(secret: bytes, v: uint8, r: bytes32, s: bytes32)</text>
<text text-anchor="start" x="8" y="-1166.1" font-family="Times,serif" font-size="14.00" fill="#000000"> &#160;&#160;&#160;constructor(_signatory: address)</text>
</g>
<!-- 0&#45;&gt;11 -->
<g id="edge5" class="edge">
<title>0&#45;&gt;11</title>
<path fill="none" stroke="#000000" d="M1194.063,-341.0014C1190.9091,-342.1067 1187.7553,-343.1737 1184.6032,-344.2 1004.7719,-402.7494 938.0696,-314.832 760.6032,-380.2 596.4938,-440.6481 545.7139,-469.423 440.6032,-609.2 322.0623,-766.8365 262.1318,-992.2755 234.9863,-1128.1976"/>
<polygon fill="none" stroke="#000000" points="224.6389,-1126.4044 229.3029,-1157.8448 245.2634,-1130.3581 224.6389,-1126.4044"/>
</g>
<!-- 4 -->
<g id="node8" class="node">
<title>4</title>
<polygon fill="#f2f2f2" stroke="#000000" points="1323.1725,-685.3 1323.1725,-1028.5 1696.0339,-1028.5 1696.0339,-685.3 1323.1725,-685.3"/>
<text text-anchor="middle" x="1509.6032" y="-1011.9" font-family="Times,serif" font-size="14.00" fill="#000000">Shares</text>
<polyline fill="none" stroke="#000000" points="1323.1725,-1003.7 1696.0339,-1003.7 "/>
<text text-anchor="start" x="1331.1725" y="-987.1" font-family="Times,serif" font-size="14.00" fill="#000000">Public:</text>
<text text-anchor="start" x="1331.1725" y="-970.3" font-family="Times,serif" font-size="14.00" fill="#000000"> &#160;&#160;shareholders: mapping(address=&gt;uint256)</text>
<text text-anchor="start" x="1331.1725" y="-953.5" font-family="Times,serif" font-size="14.00" fill="#000000"> &#160;&#160;total: uint256</text>
<text text-anchor="start" x="1331.1725" y="-936.7" font-family="Times,serif" font-size="14.00" fill="#000000"> &#160;&#160;locked: bool</text>
<polyline fill="none" stroke="#000000" points="1323.1725,-928.5 1696.0339,-928.5 "/>
<text text-anchor="start" x="1331.1725" y="-911.9" font-family="Times,serif" font-size="14.00" fill="#000000">Public:</text>
<text text-anchor="start" x="1331.1725" y="-895.1" font-family="Times,serif" font-size="14.00" fill="#000000"> &#160;&#160;&#160;&lt;&lt;modifier&gt;&gt; open()</text>
<text text-anchor="start" x="1331.1725" y="-878.3" font-family="Times,serif" font-size="14.00" fill="#000000"> &#160;&#160;&#160;setShareholder(shareholder: address, shares: uint256)</text>
<text text-anchor="start" x="1331.1725" y="-861.5" font-family="Times,serif" font-size="14.00" fill="#000000"> &#160;&#160;&#160;setShareholders(_shareholders: address[], _shares: uint256[])</text>
<text text-anchor="start" x="1331.1725" y="-844.7" font-family="Times,serif" font-size="14.00" fill="#000000"> &#160;&#160;&#160;lock()</text>
<text text-anchor="start" x="1331.1725" y="-827.9" font-family="Times,serif" font-size="14.00" fill="#000000"> &#160;&#160;&#160;name(): string</text>
<text text-anchor="start" x="1331.1725" y="-811.1" font-family="Times,serif" font-size="14.00" fill="#000000"> &#160;&#160;&#160;symbol(): string</text>
<text text-anchor="start" x="1331.1725" y="-794.3" font-family="Times,serif" font-size="14.00" fill="#000000"> &#160;&#160;&#160;decimals(): uint8</text>
<text text-anchor="start" x="1331.1725" y="-777.5" font-family="Times,serif" font-size="14.00" fill="#000000"> &#160;&#160;&#160;totalSupply(): uint256</text>
<text text-anchor="start" x="1331.1725" y="-760.7" font-family="Times,serif" font-size="14.00" fill="#000000"> &#160;&#160;&#160;balanceOf(shareholder: address): (balance: uint256)</text>
<text text-anchor="start" x="1331.1725" y="-743.9" font-family="Times,serif" font-size="14.00" fill="#000000"> &#160;&#160;&#160;transfer(address, uint256): (success: bool)</text>
<text text-anchor="start" x="1331.1725" y="-727.1" font-family="Times,serif" font-size="14.00" fill="#000000"> &#160;&#160;&#160;transferFrom(address, address, uint256): (success: bool)</text>
<text text-anchor="start" x="1331.1725" y="-710.3" font-family="Times,serif" font-size="14.00" fill="#000000"> &#160;&#160;&#160;approve(address, uint256): (success: bool)</text>
<text text-anchor="start" x="1331.1725" y="-693.5" font-family="Times,serif" font-size="14.00" fill="#000000"> &#160;&#160;&#160;allowance(address, address): (remaining: uint256)</text>
</g>
<!-- 1&#45;&gt;4 -->
<g id="edge7" class="edge">
<title>1&#45;&gt;4</title>
<path fill="none" stroke="#000000" stroke-dasharray="5,2" d="M1262.5897,-572.7164C1280.4972,-584.0383 1297.7896,-596.2245 1313.6032,-609.2 1338.0953,-629.2964 1361.5151,-652.9377 1383.0992,-677.5003"/>
<polygon fill="#000000" stroke="#000000" points="1380.5401,-679.8915 1389.738,-685.1498 1385.8268,-675.3033 1380.5401,-679.8915"/>
</g>
<!-- 6 -->
<g id="node10" class="node">
<title>6</title>
<polygon fill="#f2f2f2" stroke="#000000" points="804.1547,-609.7 804.1547,-1104.1 1305.0517,-1104.1 1305.0517,-609.7 804.1547,-609.7"/>
<text text-anchor="middle" x="1054.6032" y="-1087.5" font-family="Times,serif" font-size="14.00" fill="#000000">Voting</text>
<polyline fill="none" stroke="#000000" points="804.1547,-1079.3 1305.0517,-1079.3 "/>
<text text-anchor="start" x="812.1547" y="-1062.7" font-family="Times,serif" font-size="14.00" fill="#000000">Private:</text>
<text text-anchor="start" x="812.1547" y="-1045.9" font-family="Times,serif" font-size="14.00" fill="#000000"> &#160;&#160;data: LibVoting.Data</text>
<polyline fill="none" stroke="#000000" points="804.1547,-1037.7 1305.0517,-1037.7 "/>
<text text-anchor="start" x="812.1547" y="-1021.1" font-family="Times,serif" font-size="14.00" fill="#000000">Public:</text>
<text text-anchor="start" x="812.1547" y="-1004.3" font-family="Times,serif" font-size="14.00" fill="#000000"> &#160;&#160;&#160;&lt;&lt;modifier&gt;&gt; isclosed()</text>
<text text-anchor="start" x="812.1547" y="-987.5" font-family="Times,serif" font-size="14.00" fill="#000000"> &#160;&#160;&#160;&lt;&lt;modifier&gt;&gt; isRunning()</text>
<text text-anchor="start" x="812.1547" y="-970.7" font-family="Times,serif" font-size="14.00" fill="#000000"> &#160;&#160;&#160;constructor(title: string, proposal: string, token: TokenErc20, _signatory: address)</text>
<text text-anchor="start" x="812.1547" y="-953.9" font-family="Times,serif" font-size="14.00" fill="#000000"> &#160;&#160;&#160;setVotingTime(starttime: uint256, endtime: uint256, v: uint8, r: bytes32, s: bytes32)</text>
<text text-anchor="start" x="812.1547" y="-937.1" font-family="Times,serif" font-size="14.00" fill="#000000"> &#160;&#160;&#160;title(): string</text>
<text text-anchor="start" x="812.1547" y="-920.3" font-family="Times,serif" font-size="14.00" fill="#000000"> &#160;&#160;&#160;proposal(): string</text>
<text text-anchor="start" x="812.1547" y="-903.5" font-family="Times,serif" font-size="14.00" fill="#000000"> &#160;&#160;&#160;starttime(): uint256</text>
<text text-anchor="start" x="812.1547" y="-886.7" font-family="Times,serif" font-size="14.00" fill="#000000"> &#160;&#160;&#160;endtime(): uint256</text>
<text text-anchor="start" x="812.1547" y="-869.9" font-family="Times,serif" font-size="14.00" fill="#000000"> &#160;&#160;&#160;currenttime(): uint256</text>
<text text-anchor="start" x="812.1547" y="-853.1" font-family="Times,serif" font-size="14.00" fill="#000000"> &#160;&#160;&#160;aye(): uint256</text>
<text text-anchor="start" x="812.1547" y="-836.3" font-family="Times,serif" font-size="14.00" fill="#000000"> &#160;&#160;&#160;nay(): uint256</text>
<text text-anchor="start" x="812.1547" y="-819.5" font-family="Times,serif" font-size="14.00" fill="#000000"> &#160;&#160;&#160;abstain(): uint256</text>
<text text-anchor="start" x="812.1547" y="-802.7" font-family="Times,serif" font-size="14.00" fill="#000000"> &#160;&#160;&#160;standDown(): uint256</text>
<text text-anchor="start" x="812.1547" y="-785.9" font-family="Times,serif" font-size="14.00" fill="#000000"> &#160;&#160;&#160;tokenErc20(): TokenErc20</text>
<text text-anchor="start" x="812.1547" y="-769.1" font-family="Times,serif" font-size="14.00" fill="#000000"> &#160;&#160;&#160;voters(i: address): bool</text>
<text text-anchor="start" x="812.1547" y="-752.3" font-family="Times,serif" font-size="14.00" fill="#000000"> &#160;&#160;&#160;resolution(): (bool, uint256, string, string)</text>
<text text-anchor="start" x="812.1547" y="-735.5" font-family="Times,serif" font-size="14.00" fill="#000000"> &#160;&#160;&#160;closed(): bool</text>
<text text-anchor="start" x="812.1547" y="-718.7" font-family="Times,serif" font-size="14.00" fill="#000000"> &#160;&#160;&#160;started(): bool</text>
<text text-anchor="start" x="812.1547" y="-701.9" font-family="Times,serif" font-size="14.00" fill="#000000"> &#160;&#160;&#160;running(): bool</text>
<text text-anchor="start" x="812.1547" y="-685.1" font-family="Times,serif" font-size="14.00" fill="#000000"> &#160;&#160;&#160;accepted(): bool</text>
<text text-anchor="start" x="812.1547" y="-668.3" font-family="Times,serif" font-size="14.00" fill="#000000"> &#160;&#160;&#160;rejected(): bool</text>
<text text-anchor="start" x="812.1547" y="-651.5" font-family="Times,serif" font-size="14.00" fill="#000000"> &#160;&#160;&#160;votes(): (uint256, uint256)</text>
<text text-anchor="start" x="812.1547" y="-634.7" font-family="Times,serif" font-size="14.00" fill="#000000"> &#160;&#160;&#160;canVote(sender: address): bool</text>
<text text-anchor="start" x="812.1547" y="-617.9" font-family="Times,serif" font-size="14.00" fill="#000000"> &#160;&#160;&#160;castVote(vote: LibVoting.Vote, v: uint8, r: bytes32, s: bytes32)</text>
</g>
<!-- 1&#45;&gt;6 -->
<g id="edge9" class="edge">
<title>1&#45;&gt;6</title>
<path fill="none" stroke="#000000" stroke-dasharray="5,2" d="M1054.6032,-573.132C1054.6032,-581.5237 1054.6032,-590.24 1054.6032,-599.186"/>
<polygon fill="#000000" stroke="#000000" points="1051.1033,-599.3788 1054.6032,-609.3789 1058.1033,-599.3789 1051.1033,-599.3788"/>
</g>
<!-- 9 -->
<g id="node13" class="node">
<title>9</title>
<polygon fill="#f2f2f2" stroke="#000000" points="249.0526,-1479.3 249.0526,-1587.3 670.1538,-1587.3 670.1538,-1479.3 249.0526,-1479.3"/>
<text text-anchor="middle" x="459.6032" y="-1570.7" font-family="Times,serif" font-size="14.00" fill="#000000">&lt;&lt;Library&gt;&gt;</text>
<text text-anchor="middle" x="459.6032" y="-1553.9" font-family="Times,serif" font-size="14.00" fill="#000000">libsign</text>
<polyline fill="none" stroke="#000000" points="249.0526,-1545.7 670.1538,-1545.7 "/>
<text text-anchor="middle" x="459.6032" y="-1529.1" font-family="Times,serif" font-size="14.00" fill="#000000"> </text>
<polyline fill="none" stroke="#000000" points="249.0526,-1520.9 670.1538,-1520.9 "/>
<text text-anchor="start" x="257.0526" y="-1504.3" font-family="Times,serif" font-size="14.00" fill="#000000">Public:</text>
<text text-anchor="start" x="257.0526" y="-1487.5" font-family="Times,serif" font-size="14.00" fill="#000000"> &#160;&#160;&#160;verify(secret: bytes, v: uint8, r: bytes32, s: bytes32): (sender: address)</text>
</g>
<!-- 1&#45;&gt;9 -->
<g id="edge8" class="edge">
<title>1&#45;&gt;9</title>
<path fill="none" stroke="#000000" stroke-dasharray="5,2" d="M769.3693,-509.2241C644.288,-529.8656 517.1181,-561.8271 478.6032,-609.2 424.7453,-675.4447 447.3027,-1270.183 456.4453,-1468.9426"/>
<polygon fill="#000000" stroke="#000000" points="452.9626,-1469.3991 456.9226,-1479.226 459.9551,-1469.0745 452.9626,-1469.3991"/>
</g>
<!-- 1struct0 -->
<g id="node3" class="node">
<title>1struct0</title>
<polygon fill="#f2f2f2" stroke="#000000" points="933.5497,-96.9 933.5497,-247.3 1175.6567,-247.3 1175.6567,-96.9 933.5497,-96.9"/>
<text text-anchor="middle" x="1054.6032" y="-230.7" font-family="Times,serif" font-size="14.00" fill="#000000">&lt;&lt;struct&gt;&gt;</text>
<text text-anchor="middle" x="1054.6032" y="-213.9" font-family="Times,serif" font-size="14.00" fill="#000000">Data</text>
<polyline fill="none" stroke="#000000" points="933.5497,-205.7 1175.6567,-205.7 "/>
<text text-anchor="start" x="941.5497" y="-189.1" font-family="Times,serif" font-size="14.00" fill="#000000">shares: Shares</text>
<text text-anchor="start" x="941.5497" y="-172.3" font-family="Times,serif" font-size="14.00" fill="#000000">registrations: mapping(string=&gt;address)</text>
<text text-anchor="start" x="941.5497" y="-155.5" font-family="Times,serif" font-size="14.00" fill="#000000">shareholders: mapping(address=&gt;string)</text>
<text text-anchor="start" x="941.5497" y="-138.7" font-family="Times,serif" font-size="14.00" fill="#000000">secrets: string[]</text>
<text text-anchor="start" x="941.5497" y="-121.9" font-family="Times,serif" font-size="14.00" fill="#000000">votings: address[]</text>
<text text-anchor="start" x="941.5497" y="-105.1" font-family="Times,serif" font-size="14.00" fill="#000000">identifier: string</text>
</g>
<!-- 1struct0&#45;&gt;1 -->
<g id="edge1" class="edge">
<title>1struct0&#45;&gt;1</title>
<path fill="none" stroke="#000000" d="M1054.6032,-247.3944C1054.6032,-283.9547 1054.6032,-328.5492 1054.6032,-368.6587"/>
<polygon fill="#000000" stroke="#000000" points="1054.6033,-368.6705 1058.6032,-374.6706 1054.6032,-380.6705 1050.6032,-374.6705 1054.6033,-368.6705"/>
</g>
<!-- 2 -->
<g id="node4" class="node">
<title>2</title>
<polygon fill="#f2f2f2" stroke="#000000" points="487.73,-1174.7 487.73,-1316.3 1039.4764,-1316.3 1039.4764,-1174.7 487.73,-1174.7"/>
<text text-anchor="middle" x="763.6032" y="-1299.7" font-family="Times,serif" font-size="14.00" fill="#000000">&lt;&lt;Library&gt;&gt;</text>
<text text-anchor="middle" x="763.6032" y="-1282.9" font-family="Times,serif" font-size="14.00" fill="#000000">LibVoting</text>
<polyline fill="none" stroke="#000000" points="487.73,-1274.7 1039.4764,-1274.7 "/>
<text text-anchor="middle" x="763.6032" y="-1258.1" font-family="Times,serif" font-size="14.00" fill="#000000"> </text>
<polyline fill="none" stroke="#000000" points="487.73,-1249.9 1039.4764,-1249.9 "/>
<text text-anchor="start" x="495.73" y="-1233.3" font-family="Times,serif" font-size="14.00" fill="#000000">Public:</text>
<text text-anchor="start" x="495.73" y="-1216.5" font-family="Times,serif" font-size="14.00" fill="#000000"> &#160;&#160;&#160;construct(data: Data, title: string, proposal: string, token: TokenErc20)</text>
<text text-anchor="start" x="495.73" y="-1199.7" font-family="Times,serif" font-size="14.00" fill="#000000"> &#160;&#160;&#160;setVotingTime(data: Data, starttime: uint256, endtime: uint256)</text>
<text text-anchor="start" x="495.73" y="-1182.9" font-family="Times,serif" font-size="14.00" fill="#000000"> &#160;&#160;&#160;castVote(data: Data, vote: Vote, a: address, v: uint8, r: bytes32, s: bytes32): (shares: uint256)</text>
</g>
<!-- 5 -->
<g id="node9" class="node">
<title>5</title>
<polygon fill="#f2f2f2" stroke="#000000" points="1170.0007,-1386.9 1170.0007,-1679.7 1629.2057,-1679.7 1629.2057,-1386.9 1170.0007,-1386.9"/>
<text text-anchor="middle" x="1399.6032" y="-1663.1" font-family="Times,serif" font-size="14.00" fill="#000000">&lt;&lt;Interface&gt;&gt;</text>
<text text-anchor="middle" x="1399.6032" y="-1646.3" font-family="Times,serif" font-size="14.00" fill="#000000">TokenErc20</text>
<polyline fill="none" stroke="#000000" points="1170.0007,-1638.1 1629.2057,-1638.1 "/>
<text text-anchor="middle" x="1399.6032" y="-1621.5" font-family="Times,serif" font-size="14.00" fill="#000000"> </text>
<polyline fill="none" stroke="#000000" points="1170.0007,-1613.3 1629.2057,-1613.3 "/>
<text text-anchor="start" x="1178.0007" y="-1596.7" font-family="Times,serif" font-size="14.00" fill="#000000">External:</text>
<text text-anchor="start" x="1178.0007" y="-1579.9" font-family="Times,serif" font-size="14.00" fill="#000000"> &#160;&#160;&#160;&#160;name(): string</text>
<text text-anchor="start" x="1178.0007" y="-1563.1" font-family="Times,serif" font-size="14.00" fill="#000000"> &#160;&#160;&#160;&#160;symbol(): string</text>
<text text-anchor="start" x="1178.0007" y="-1546.3" font-family="Times,serif" font-size="14.00" fill="#000000"> &#160;&#160;&#160;&#160;decimals(): uint8</text>
<text text-anchor="start" x="1178.0007" y="-1529.5" font-family="Times,serif" font-size="14.00" fill="#000000"> &#160;&#160;&#160;&#160;totalSupply(): uint256</text>
<text text-anchor="start" x="1178.0007" y="-1512.7" font-family="Times,serif" font-size="14.00" fill="#000000"> &#160;&#160;&#160;&#160;balanceOf(_owner: address): (balance: uint256)</text>
<text text-anchor="start" x="1178.0007" y="-1495.9" font-family="Times,serif" font-size="14.00" fill="#000000"> &#160;&#160;&#160;&#160;transfer(_to: address, _value: uint256): (success: bool)</text>
<text text-anchor="start" x="1178.0007" y="-1479.1" font-family="Times,serif" font-size="14.00" fill="#000000"> &#160;&#160;&#160;&#160;transferFrom(_from: address, _to: address, _value: uint256): (success: bool)</text>
<text text-anchor="start" x="1178.0007" y="-1462.3" font-family="Times,serif" font-size="14.00" fill="#000000"> &#160;&#160;&#160;&#160;approve(_spender: address, _value: uint256): (success: bool)</text>
<text text-anchor="start" x="1178.0007" y="-1445.5" font-family="Times,serif" font-size="14.00" fill="#000000"> &#160;&#160;&#160;&#160;allowance(_owner: address, _spender: address): (remaining: uint256)</text>
<text text-anchor="start" x="1178.0007" y="-1428.7" font-family="Times,serif" font-size="14.00" fill="#000000">Public:</text>
<text text-anchor="start" x="1178.0007" y="-1411.9" font-family="Times,serif" font-size="14.00" fill="#000000"> &#160;&#160;&#160;&lt;&lt;event&gt;&gt; Transfer(_from: address, _to: address, _value: uint256)</text>
<text text-anchor="start" x="1178.0007" y="-1395.1" font-family="Times,serif" font-size="14.00" fill="#000000"> &#160;&#160;&#160;&lt;&lt;event&gt;&gt; Approval(_owner: address, _spender: address, _value: uint256)</text>
</g>
<!-- 2&#45;&gt;5 -->
<g id="edge10" class="edge">
<title>2&#45;&gt;5</title>
<path fill="none" stroke="#000000" stroke-dasharray="5,2" d="M920.4086,-1316.4569C992.7488,-1349.192 1080.219,-1388.7736 1160.522,-1425.112"/>
<polygon fill="#000000" stroke="#000000" points="1159.2198,-1428.3643 1169.7733,-1429.2984 1162.1057,-1421.9869 1159.2198,-1428.3643"/>
</g>
<!-- 2&#45;&gt;9 -->
<g id="edge11" class="edge">
<title>2&#45;&gt;9</title>
<path fill="none" stroke="#000000" stroke-dasharray="5,2" d="M688.4571,-1316.6416C637.9503,-1364.4569 572.0803,-1426.8167 523.984,-1472.35"/>
<polygon fill="#000000" stroke="#000000" points="521.5776,-1469.8085 516.7219,-1479.2251 526.3901,-1474.8918 521.5776,-1469.8085"/>
</g>
<!-- 2struct0 -->
<g id="node5" class="node">
<title>2struct0</title>
<polygon fill="#f2f2f2" stroke="#000000" points="587.3148,-748.1 587.3148,-965.7 785.8916,-965.7 785.8916,-748.1 587.3148,-748.1"/>
<text text-anchor="middle" x="686.6032" y="-949.1" font-family="Times,serif" font-size="14.00" fill="#000000">&lt;&lt;struct&gt;&gt;</text>
<text text-anchor="middle" x="686.6032" y="-932.3" font-family="Times,serif" font-size="14.00" fill="#000000">Data</text>
<polyline fill="none" stroke="#000000" points="587.3148,-924.1 785.8916,-924.1 "/>
<text text-anchor="start" x="595.3148" y="-907.5" font-family="Times,serif" font-size="14.00" fill="#000000">title: string</text>
<text text-anchor="start" x="595.3148" y="-890.7" font-family="Times,serif" font-size="14.00" fill="#000000">proposal: string</text>
<text text-anchor="start" x="595.3148" y="-873.9" font-family="Times,serif" font-size="14.00" fill="#000000">starttime: uint256</text>
<text text-anchor="start" x="595.3148" y="-857.1" font-family="Times,serif" font-size="14.00" fill="#000000">endtime: uint256</text>
<text text-anchor="start" x="595.3148" y="-840.3" font-family="Times,serif" font-size="14.00" fill="#000000">aye: uint256</text>
<text text-anchor="start" x="595.3148" y="-823.5" font-family="Times,serif" font-size="14.00" fill="#000000">nay: uint256</text>
<text text-anchor="start" x="595.3148" y="-806.7" font-family="Times,serif" font-size="14.00" fill="#000000">abstain: uint256</text>
<text text-anchor="start" x="595.3148" y="-789.9" font-family="Times,serif" font-size="14.00" fill="#000000">standDown: uint256</text>
<text text-anchor="start" x="595.3148" y="-773.1" font-family="Times,serif" font-size="14.00" fill="#000000">tokenErc20: TokenErc20</text>
<text text-anchor="start" x="595.3148" y="-756.3" font-family="Times,serif" font-size="14.00" fill="#000000">voters: mapping(address=&gt;bool)</text>
</g>
<!-- 2struct0&#45;&gt;2 -->
<g id="edge2" class="edge">
<title>2struct0&#45;&gt;2</title>
<path fill="none" stroke="#000000" d="M708.2056,-965.9221C720.5615,-1028.279 735.814,-1105.2546 747.1845,-1162.6387"/>
<polygon fill="#000000" stroke="#000000" points="747.2169,-1162.803 752.3069,-1167.911 749.5494,-1174.5741 744.4595,-1169.466 747.2169,-1162.803"/>
</g>
<!-- 2enum0 -->
<g id="node6" class="node">
<title>2enum0</title>
<polygon fill="#f2f2f2" stroke="#000000" points="487.5527,-798.5 487.5527,-915.3 569.6537,-915.3 569.6537,-798.5 487.5527,-798.5"/>
<text text-anchor="middle" x="528.6032" y="-898.7" font-family="Times,serif" font-size="14.00" fill="#000000">&lt;&lt;enum&gt;&gt;</text>
<text text-anchor="middle" x="528.6032" y="-881.9" font-family="Times,serif" font-size="14.00" fill="#000000">Vote</text>
<polyline fill="none" stroke="#000000" points="487.5527,-873.7 569.6537,-873.7 "/>
<text text-anchor="start" x="495.5527" y="-857.1" font-family="Times,serif" font-size="14.00" fill="#000000">Yes</text>
<text text-anchor="start" x="495.5527" y="-840.3" font-family="Times,serif" font-size="14.00" fill="#000000">No</text>
<text text-anchor="start" x="495.5527" y="-823.5" font-family="Times,serif" font-size="14.00" fill="#000000">Abstain</text>
<text text-anchor="start" x="495.5527" y="-806.7" font-family="Times,serif" font-size="14.00" fill="#000000">StandDown</text>
</g>
<!-- 2enum0&#45;&gt;2 -->
<g id="edge3" class="edge">
<title>2enum0&#45;&gt;2</title>
<path fill="none" stroke="#000000" d="M528.9695,-915.4903C531.8278,-968.5752 542.5674,-1047.0631 578.6032,-1104.6 593.1636,-1127.848 613.027,-1148.6809 634.3528,-1166.743"/>
<polygon fill="#000000" stroke="#000000" points="634.6264,-1166.9674 641.8022,-1167.6804 643.9039,-1174.5784 636.7281,-1173.8654 634.6264,-1166.9674"/>
</g>
<!-- 3 -->
<g id="node7" class="node">
<title>3</title>
<polygon fill="#f2f2f2" stroke="#000000" points="1761.5628,-84.5 1761.5628,-259.7 1967.6436,-259.7 1967.6436,-84.5 1761.5628,-84.5"/>
<text text-anchor="middle" x="1864.6032" y="-243.1" font-family="Times,serif" font-size="14.00" fill="#000000">Migrations</text>
<polyline fill="none" stroke="#000000" points="1761.5628,-234.9 1967.6436,-234.9 "/>
<text text-anchor="start" x="1769.5628" y="-218.3" font-family="Times,serif" font-size="14.00" fill="#000000">Public:</text>
<text text-anchor="start" x="1769.5628" y="-201.5" font-family="Times,serif" font-size="14.00" fill="#000000"> &#160;&#160;owner: address</text>
<text text-anchor="start" x="1769.5628" y="-184.7" font-family="Times,serif" font-size="14.00" fill="#000000"> &#160;&#160;last_completed_migration: uint</text>
<polyline fill="none" stroke="#000000" points="1761.5628,-176.5 1967.6436,-176.5 "/>
<text text-anchor="start" x="1769.5628" y="-159.9" font-family="Times,serif" font-size="14.00" fill="#000000">Public:</text>
<text text-anchor="start" x="1769.5628" y="-143.1" font-family="Times,serif" font-size="14.00" fill="#000000"> &#160;&#160;&#160;&lt;&lt;modifier&gt;&gt; restricted()</text>
<text text-anchor="start" x="1769.5628" y="-126.3" font-family="Times,serif" font-size="14.00" fill="#000000"> &#160;&#160;&#160;constructor()</text>
<text text-anchor="start" x="1769.5628" y="-109.5" font-family="Times,serif" font-size="14.00" fill="#000000"> &#160;&#160;&#160;setCompleted(completed: uint)</text>
<text text-anchor="start" x="1769.5628" y="-92.7" font-family="Times,serif" font-size="14.00" fill="#000000"> &#160;&#160;&#160;upgrade(new_address: address)</text>
</g>
<!-- 3&#45;&gt;3 -->
<g id="edge12" class="edge">
<title>3&#45;&gt;3</title>
<path fill="none" stroke="#000000" stroke-dasharray="5,2" d="M1967.9093,-124.8725C1978.7176,-134.0919 1985.6436,-149.8344 1985.6436,-172.1 1985.6436,-189.1471 1981.5837,-202.3705 1974.8299,-211.7701"/>
<polygon fill="#000000" stroke="#000000" points="1972.0817,-209.5888 1967.9093,-219.3275 1977.2441,-214.3163 1972.0817,-209.5888"/>
</g>
<!-- 4&#45;&gt;5 -->
<g id="edge13" class="edge">
<title>4&#45;&gt;5</title>
<path fill="none" stroke="#000000" stroke-dasharray="5,2" d="M1584.6097,-1028.7517C1616.0272,-1126.3091 1636.2789,-1248.8377 1592.6032,-1350.4 1591.1197,-1353.8498 1589.5355,-1357.265 1587.8587,-1360.6443"/>
<polygon fill="none" stroke="#000000" points="1578.6563,-1355.5823 1572.6763,-1386.7992 1596.8182,-1366.125 1578.6563,-1355.5823"/>
</g>
<!-- 4&#45;&gt;10 -->
<g id="edge14" class="edge">
<title>4&#45;&gt;10</title>
<path fill="none" stroke="#000000" d="M1479.0877,-1028.7597C1474.1866,-1056.362 1469.1768,-1084.5766 1464.4611,-1111.1351"/>
<polygon fill="none" stroke="#000000" points="1454.0909,-1109.4795 1459.1843,-1140.8531 1474.7675,-1113.1509 1454.0909,-1109.4795"/>
</g>
<!-- 6&#45;&gt;2 -->
<g id="edge18" class="edge">
<title>6&#45;&gt;2</title>
<path fill="none" stroke="#000000" d="M869.4841,-1104.1072C852.8847,-1126.2739 837.03,-1147.4462 822.8779,-1166.3449"/>
<polygon fill="#000000" stroke="#000000" points="819.9026,-1164.479 816.71,-1174.5814 825.5057,-1168.6749 819.9026,-1164.479"/>
</g>
<!-- 6&#45;&gt;5 -->
<g id="edge19" class="edge">
<title>6&#45;&gt;5</title>
<path fill="none" stroke="#000000" stroke-dasharray="5,2" d="M1049.4485,-1104.214C1051.6448,-1205.4489 1060.7708,-1308.5823 1086.6032,-1350.4 1105.6508,-1381.2344 1131.9669,-1407.4515 1161.3178,-1429.5684"/>
<polygon fill="#000000" stroke="#000000" points="1159.5399,-1432.605 1169.6732,-1435.6982 1163.6806,-1426.9609 1159.5399,-1432.605"/>
</g>
<!-- 7 -->
<g id="node11" class="node">
<title>7</title>
<polygon fill="#f2f2f2" stroke="#000000" points="1095.6333,-1191.5 1095.6333,-1299.5 1279.5731,-1299.5 1279.5731,-1191.5 1095.6333,-1191.5"/>
<text text-anchor="middle" x="1187.6032" y="-1282.9" font-family="Times,serif" font-size="14.00" fill="#000000">&lt;&lt;Interface&gt;&gt;</text>
<text text-anchor="middle" x="1187.6032" y="-1266.1" font-family="Times,serif" font-size="14.00" fill="#000000">VotingIfc</text>
<polyline fill="none" stroke="#000000" points="1095.6333,-1257.9 1279.5731,-1257.9 "/>
<text text-anchor="middle" x="1187.6032" y="-1241.3" font-family="Times,serif" font-size="14.00" fill="#000000"> </text>
<polyline fill="none" stroke="#000000" points="1095.6333,-1233.1 1279.5731,-1233.1 "/>
<text text-anchor="start" x="1103.6333" y="-1216.5" font-family="Times,serif" font-size="14.00" fill="#000000">External:</text>
<text text-anchor="start" x="1103.6333" y="-1199.7" font-family="Times,serif" font-size="14.00" fill="#000000"> &#160;&#160;&#160;&#160;tokenErc20(): TokenErc20</text>
</g>
<!-- 6&#45;&gt;7 -->
<g id="edge15" class="edge">
<title>6&#45;&gt;7</title>
<path fill="none" stroke="#000000" stroke-dasharray="5,2" d="M1139.2109,-1104.1072C1146.3221,-1124.8847 1153.1342,-1144.7884 1159.2868,-1162.765"/>
<polygon fill="none" stroke="#000000" points="1149.4581,-1166.4737 1169.1068,-1191.4573 1169.3266,-1159.6736 1149.4581,-1166.4737"/>
</g>
<!-- 6&#45;&gt;10 -->
<g id="edge16" class="edge">
<title>6&#45;&gt;10</title>
<path fill="none" stroke="#000000" d="M1300.1564,-1104.1072C1305.3895,-1109.3755 1310.5668,-1114.5877 1315.6712,-1119.7265"/>
<polygon fill="none" stroke="#000000" points="1308.2635,-1127.1683 1336.8549,-1141.0529 1323.1625,-1112.3689 1308.2635,-1127.1683"/>
</g>
<!-- 6&#45;&gt;11 -->
<g id="edge17" class="edge">
<title>6&#45;&gt;11</title>
<path fill="none" stroke="#000000" d="M803.8807,-1100.0906C800.8023,-1101.6438 797.7095,-1103.1478 794.6032,-1104.6 666.5522,-1164.463 615.6841,-1106.1112 478.6032,-1140.6 468.8593,-1143.0515 458.9948,-1145.7803 449.091,-1148.7264"/>
<polygon fill="none" stroke="#000000" points="445.6917,-1138.7888 420.2576,-1157.8507 452.0275,-1158.8102 445.6917,-1138.7888"/>
</g>
<!-- 7&#45;&gt;5 -->
<g id="edge20" class="edge">
<title>7&#45;&gt;5</title>
<path fill="none" stroke="#000000" stroke-dasharray="5,2" d="M1227.4788,-1299.633C1244.236,-1322.3817 1264.6641,-1350.1139 1285.5121,-1378.416"/>
<polygon fill="#000000" stroke="#000000" points="1282.9462,-1380.8341 1291.6951,-1386.8097 1288.5822,-1376.6825 1282.9462,-1380.8341"/>
</g>
<!-- 8 -->
<g id="node12" class="node">
<title>8</title>
<polygon fill="#f2f2f2" stroke="#000000" points="2003.7171,-109.7 2003.7171,-234.5 2179.4893,-234.5 2179.4893,-109.7 2003.7171,-109.7"/>
<text text-anchor="middle" x="2091.6032" y="-217.9" font-family="Times,serif" font-size="14.00" fill="#000000">hasapi</text>
<polyline fill="none" stroke="#000000" points="2003.7171,-209.7 2179.4893,-209.7 "/>
<text text-anchor="start" x="2011.7171" y="-193.1" font-family="Times,serif" font-size="14.00" fill="#000000">Internal:</text>
<text text-anchor="start" x="2011.7171" y="-176.3" font-family="Times,serif" font-size="14.00" fill="#000000"> &#160;&#160;api: address</text>
<polyline fill="none" stroke="#000000" points="2003.7171,-168.1 2179.4893,-168.1 "/>
<text text-anchor="start" x="2011.7171" y="-151.5" font-family="Times,serif" font-size="14.00" fill="#000000">Public:</text>
<text text-anchor="start" x="2011.7171" y="-134.7" font-family="Times,serif" font-size="14.00" fill="#000000"> &#160;&#160;&#160;&lt;&lt;modifier&gt;&gt; apionly()</text>
<text text-anchor="start" x="2011.7171" y="-117.9" font-family="Times,serif" font-size="14.00" fill="#000000"> &#160;&#160;&#160;constructor(_api: address)</text>
</g>
<!-- 11&#45;&gt;9 -->
<g id="edge21" class="edge">
<title>11&#45;&gt;9</title>
<path fill="none" stroke="#000000" stroke-dasharray="5,2" d="M290.1371,-1333.4133C327.8457,-1377.891 372.722,-1430.8229 406.8188,-1471.0404"/>
<polygon fill="#000000" stroke="#000000" points="404.3526,-1473.5438 413.4891,-1478.908 409.692,-1469.017 404.3526,-1473.5438"/>
</g>
</g>
</svg>
